<svg width="1440" height="193" viewBox="0 0 1440 193" fill="none" xmlns="http://www.w3.org/2000/svg">
<path d="M1440 160.108L1392 144.135C1344 128.163 1248 96.2181 1152 90.9272C1056 85.237 960 107.199 864 106.9C768 107.199 672 85.237 576 101.509C480 117.182 384 171.089 288 186.762C192 203.034 96 181.072 48 170.789L0 160.108V0.383316H48C96 0.383316 192 0.383316 288 0.383316C384 0.383316 480 0.383316 576 0.383316C672 0.383316 768 0.383316 864 0.383316C960 0.383316 1056 0.383316 1152 0.383316C1248 0.383316 1344 0.383316 1392 0.383316H1440V160.108Z" fill="#F5B3A3"/>
</svg>
