<svg width="1440" height="192" viewBox="0 0 1440 192" fill="none" xmlns="http://www.w3.org/2000/svg">
<path d="M1440 191.701L1400 165.047C1360 138.792 1280 84.8848 1200 74.6025C1120 63.9209 1040 95.8658 960 95.8658C880 95.8658 800 63.9209 720 74.6025C640 84.8848 560 138.792 480 138.492C400 138.792 320 84.8848 240 58.63C160 31.976 80 31.976 40 31.976H0V0.0310669H40C80 0.0310669 160 0.0310669 240 0.0310669C320 0.0310669 400 0.0310669 480 0.0310669C560 0.0310669 640 0.0310669 720 0.0310669C800 0.0310669 880 0.0310669 960 0.0310669C1040 0.0310669 1120 0.0310669 1200 0.0310669C1280 0.0310669 1360 0.0310669 1400 0.0310669H1440V191.701Z" fill="#F5B3A3"/>
</svg>
