<svg width="522" height="499" viewBox="0 0 522 499" fill="none" xmlns="http://www.w3.org/2000/svg">
<path d="M420.357 32.1724C465.103 57.2384 500.615 97.279 514.465 141.552C528.315 185.499 520.857 234.003 509.848 279.903C498.839 325.478 484.635 368.774 457.645 407.187C430.656 445.599 390.882 479.78 344.006 492.476C297.13 505.498 243.506 497.685 196.63 479.78C149.754 462.202 109.27 434.531 89.3834 398.723C69.1414 363.24 69.1414 319.618 49.9648 271.765C30.7882 223.586 -7.565 171.501 1.31306 132.762C10.1911 94.3492 66.3004 69.2832 118.503 47.4725C170.351 25.3362 218.648 6.45529 269.785 1.89782C320.923 -2.65964 375.257 7.10634 420.357 32.1724Z" fill="#EB6848" fill-opacity="0.6"/>
</svg>
