<svg width="1440" height="256" viewBox="0 0 1440 256" fill="none" xmlns="http://www.w3.org/2000/svg">
<path d="M0 0.165527L48 16.138C96 32.1104 192 64.0554 288 64.0554C384 64.0554 480 32.1104 576 26.8196C672 21.1294 768 43.0915 864 48.0829C960 53.0743 1056 43.0915 1152 53.3738C1248 64.0554 1344 96.0003 1392 111.973L1440 127.945V255.725H1392C1344 255.725 1248 255.725 1152 255.725C1056 255.725 960 255.725 864 255.725C768 255.725 672 255.725 576 255.725C480 255.725 384 255.725 288 255.725C192 255.725 96 255.725 48 255.725H0V0.165527Z" fill="#F5B3A3"/>
</svg>
